<?xml version="1.0" encoding="UTF-8"?>
<svg version="1.1" xmlns="http://www.w3.org/2000/svg" width="512" height="512">
<path d="M0 0 C0.81180725 -0.00979385 1.6236145 -0.01958771 2.46002197 -0.02967834 C57.97550774 -0.56133066 107.5693427 16.7058321 147.78955078 55.73535156 C172.28175863 79.90560349 189.06871559 110.64323412 198.0625 143.73828125 C198.24901123 144.41157471 198.43552246 145.08486816 198.62768555 145.77856445 C202.35017163 160.25267253 203.81635368 174.80713353 203.70361328 189.71777344 C203.68750065 192.23818007 203.70359963 194.75698425 203.72265625 197.27734375 C203.74192842 211.99200539 201.99842378 226.52985143 198.0625 240.73828125 C197.85343018 241.50760986 197.64436035 242.27693848 197.42895508 243.06958008 C183.14058913 294.01677713 149.52668823 335.77602638 103.61132812 361.83374023 C86.73589356 371.11973336 69.09139491 377.13733969 50.3125 381.23828125 C49.53922363 381.41617187 48.76594727 381.5940625 47.96923828 381.77734375 C24.43790546 387.00537626 -4.23685413 386.65443988 -27.6875 381.23828125 C-28.45932617 381.0666748 -29.23115234 380.89506836 -30.02636719 380.71826172 C-80.39802093 369.26643715 -124.27842525 338.68637424 -152.07226562 295.06494141 C-178.32917611 252.74700926 -188.68605398 199.57938427 -177.29052734 150.68408203 C-177.09152832 149.87696777 -176.8925293 149.06985352 -176.6875 148.23828125 C-176.39866943 147.06434814 -176.39866943 147.06434814 -176.10400391 145.86669922 C-174.83959741 140.91576085 -173.34463719 136.07069938 -171.6875 131.23828125 C-171.35129639 130.24223877 -171.35129639 130.24223877 -171.00830078 129.22607422 C-154.34240583 80.49861989 -118.39982739 41.38657593 -72.6875 18.23828125 C-66.16176647 15.19825325 -59.47180399 12.63639339 -52.6875 10.23828125 C-51.64650146 9.86582275 -51.64650146 9.86582275 -50.58447266 9.48583984 C-34.452076 3.80940766 -17.12176851 0.17129053 0 0 Z " fill="#138EF0" transform="translate(244.6875,63.76171875)"/>
<path d="M0 0 C1.15739182 -0.00570007 2.31478363 -0.01140015 3.50724792 -0.01727295 C5.94533385 -0.02667717 8.38343222 -0.03323861 10.8215332 -0.03710938 C14.52122454 -0.04681794 18.22036046 -0.07788728 21.91992188 -0.109375 C24.30077799 -0.11590626 26.68163803 -0.12115625 29.0625 -0.125 C30.15351517 -0.1373468 31.24453033 -0.1496936 32.36860657 -0.16241455 C51.49766035 -0.10780069 67.71318835 7.4937811 81.48046875 20.515625 C97.70011194 37.48832306 99.25235876 57.18132317 98.82373047 79.43457031 C98.53537203 87.99473963 97.70074852 95.31499861 91.3125 101.59765625 C86.48137762 105.90716645 82.34689941 107.449147 75.9440155 107.47055054 C74.7875502 107.47908051 73.6310849 107.48761047 72.4395752 107.49639893 C71.17971802 107.49549255 69.91986084 107.49458618 68.62182617 107.49365234 C67.27447641 107.49964026 65.92713006 107.50644642 64.57978821 107.51400757 C60.92675266 107.53164929 57.27381087 107.5363622 53.62073684 107.53763914 C51.33597262 107.53906248 49.0512321 107.54333556 46.76647377 107.54863358 C38.78855506 107.56712868 30.81070311 107.57530495 22.83276367 107.57373047 C15.40788235 107.5725296 7.98329198 107.59362227 0.55848426 107.6252178 C-5.82556673 107.65141185 -12.20952288 107.66209644 -18.59362715 107.66081965 C-22.4023488 107.66031088 -26.21081186 107.66594655 -30.01947975 107.68717575 C-33.60406084 107.7066109 -37.18813812 107.70664719 -40.7727375 107.69214249 C-42.7058673 107.68907104 -44.63899743 107.70569442 -46.572052 107.72302246 C-54.53955991 107.66564602 -60.0445686 106.77558376 -66.29296875 101.4921875 C-66.73898438 100.94304687 -67.185 100.39390625 -67.64453125 99.828125 C-68.10601562 99.28414063 -68.5675 98.74015625 -69.04296875 98.1796875 C-72.76941468 92.17465044 -72.53610816 86.27511835 -72.33154297 79.46191406 C-72.28584793 77.79746331 -72.2529066 76.13265056 -72.22705078 74.46777344 C-71.84719913 50.47837951 -71.84719913 50.47837951 -67.26953125 40.203125 C-66.79644531 39.13320313 -66.32335937 38.06328125 -65.8359375 36.9609375 C-57.83620845 20.65453536 -44.98920265 9.93467916 -28.26953125 3.203125 C-19.00622934 0.1153577 -9.66360568 0.03743469 0 0 Z " fill="#FEFEFE" transform="translate(243.26953125,244.796875)"/>
<path d="M0 0 C9.68666924 7.14126711 17.13452687 18.25888693 19.125 30.25 C20.53429184 46.72964886 19.3946587 60.12570799 9.375 73.75 C1.26163911 82.98297402 -8.54222632 88.15202663 -20.796875 89.59375 C-32.82729456 90.00156083 -42.98114094 85.37787472 -51.9140625 77.4375 C-62.2862838 66.47127484 -66.56808023 51.8205012 -66.22265625 37.02734375 C-64.95889707 23.29638727 -58.23334069 10.22979491 -47.625 1.37109375 C-33.1390648 -9.47072337 -15.42215189 -9.58320474 0 0 Z " fill="#FDFEFE" transform="translate(278.875,134.75)"/>
<path d="M0 0 C9.12142291 3.28710852 14.35756336 10.11584601 18.375 18.625 C21.77607787 27.9279483 20.91977212 37.64650049 17.12890625 46.66796875 C13.53822892 54.08538871 8.77542291 58.90254283 1.625 62.875 C-4.9277065 64.90859857 -9.8388978 64.82777157 -16.125 61.9375 C-24.17275588 57.44572928 -28.82352397 52.1160476 -32.12109375 43.453125 C-34.43419337 34.36521361 -34.46952872 23.41620692 -30 15 C-22.83954251 2.97667729 -13.80128876 -1.50586096 0 0 Z " fill="#FCFDFE" transform="translate(172,171)"/>
<path d="M0 0 C6.95747825 3.55463889 12.45690979 10.33332534 15.25 17.5625 C17.748832 27.68366845 17.41757614 38.53214696 12.85546875 47.9375 C8.09635089 55.71883139 2.09479314 60.28042998 -6.75 62.5625 C-12.64601592 63.73500317 -17.16438443 62.01062465 -22.35546875 59.171875 C-30.13902939 53.94050961 -34.94783163 45.70683581 -36.75 36.5625 C-37.76865383 25.26999471 -36.03034561 15.73695632 -29 6.625 C-20.99426126 -1.66520661 -10.93195254 -4.07120991 0 0 Z " fill="#FCFEFE" transform="translate(356.75,172.4375)"/>
<path d="M0 0 C-0.515625 0.9075 -1.03125 1.815 -1.5625 2.75 C-1.92601562 3.39453125 -2.28953125 4.0390625 -2.6640625 4.703125 C-3.62647682 6.35780225 -4.62608073 7.99104723 -5.6484375 9.609375 C-14.80919205 24.41059414 -18.37436735 40.01251707 -18.1875 57.3125 C-18.18685547 58.46556641 -18.18621094 59.61863281 -18.18554688 60.80664062 C-18.16007846 65.68808623 -18.09426241 70.22508637 -17 75 C-20.83307169 75.11719175 -24.66567608 75.18758077 -28.5 75.25 C-29.57765625 75.28351563 -30.6553125 75.31703125 -31.765625 75.3515625 C-38.70052721 75.43613448 -43.11429393 74.74420931 -49 71 C-55.76298698 63.89019318 -54.4731455 55.08377958 -54.33984375 45.83984375 C-53.82427666 32.43723874 -46.7129302 20.77205798 -37.0625 11.66015625 C-25.92867371 2.69826956 -14.13999637 -0.75153524 0 0 Z " fill="#FCFDFE" transform="translate(161,256)"/>
<path d="M0 0 C14.517781 -0.54555336 27.1187769 3.08293591 38 13 C44.43244086 19.13737477 48.53845682 25.83119905 52 34 C52.37640625 34.87398438 52.7528125 35.74796875 53.140625 36.6484375 C54.40434048 41.57692786 54.36856432 46.36940219 54.375 51.4375 C54.39949219 52.44876953 54.42398438 53.46003906 54.44921875 54.50195312 C54.47429078 60.90785565 53.83821771 64.81078508 50 70 C44.82600795 74.09607704 41.04595925 75.13358866 34.578125 75.09765625 C33.04091797 75.09282227 33.04091797 75.09282227 31.47265625 75.08789062 C30.40917969 75.07951172 29.34570312 75.07113281 28.25 75.0625 C27.17105469 75.05798828 26.09210938 75.05347656 24.98046875 75.04882812 C22.32025617 75.03705727 19.66015635 75.02061399 17 75 C17.16081055 74.28175049 17.32162109 73.56350098 17.48730469 72.82348633 C21.62645334 50.0286034 16.4987575 25.30561067 3.515625 6.26953125 C2.15429386 4.23104313 1.03924098 2.21602856 0 0 Z " fill="#FCFDFE" transform="translate(351,256)"/>
</svg>
